<svg width="32" height="33" viewBox="0 0 32 33" fill="none" xmlns="http://www.w3.org/2000/svg">
<rect y="0.5" width="32" height="32" rx="8" fill="white"/>
<g clip-path="url(#clip0_95_636)">
<path d="M11.6372 22.4707V16.29L9.72034 14.5364L8.00146 13.5632V21.38C8.00146 21.9835 8.49044 22.4707 9.0922 22.4707H11.6372Z" fill="#005F70"/>
<path d="M20.3628 22.4707H22.9078C23.5113 22.4707 23.9985 21.9816 23.9985 21.3799V13.5632L22.0516 14.6778L20.3628 16.2899V22.4707Z" fill="#005F70"/>
<path d="M11.6373 16.2899L11.3765 13.8749L11.6373 11.5635L16.0001 14.8356L20.363 11.5635L20.6547 13.7501L20.363 16.2899L16.0001 19.562L11.6373 16.2899Z" fill="#005F70"/>
<path d="M20.3628 11.5635V16.2899L23.9985 13.5631V12.1088C23.9985 10.76 22.4588 9.99111 21.3809 10.8L20.3628 11.5635Z" fill="#005F70"/>
<path d="M8.00146 13.5632L9.6736 14.8173L11.6372 16.2899V11.5635L10.6191 10.8001C9.53931 9.99107 8.00146 10.7601 8.00146 12.1088V13.5631V13.5632Z" fill="#005F70"/>
</g>
<defs>
<clipPath id="clip0_95_636">
<rect width="16" height="12.0603" fill="white" transform="translate(8 10.4697)"/>
</clipPath>
</defs>
</svg>
