<svg width="22" height="16" viewBox="0 0 22 16" fill="none" xmlns="http://www.w3.org/2000/svg">
<path d="M0.333374 1.33333C0.333374 0.979711 0.47385 0.640573 0.723899 0.390525C0.973947 0.140476 1.31309 0 1.66671 0H20.3334C20.687 0 21.0261 0.140476 21.2762 0.390525C21.5262 0.640573 21.6667 0.979711 21.6667 1.33333C21.6667 1.68696 21.5262 2.02609 21.2762 2.27614C21.0261 2.52619 20.687 2.66667 20.3334 2.66667H1.66671C1.31309 2.66667 0.973947 2.52619 0.723899 2.27614C0.47385 2.02609 0.333374 1.68696 0.333374 1.33333ZM0.333374 8C0.333374 7.64638 0.47385 7.30724 0.723899 7.05719C0.973947 6.80714 1.31309 6.66667 1.66671 6.66667H20.3334C20.687 6.66667 21.0261 6.80714 21.2762 7.05719C21.5262 7.30724 21.6667 7.64638 21.6667 8C21.6667 8.35362 21.5262 8.69276 21.2762 8.94281C21.0261 9.19286 20.687 9.33333 20.3334 9.33333H1.66671C1.31309 9.33333 0.973947 9.19286 0.723899 8.94281C0.47385 8.69276 0.333374 8.35362 0.333374 8ZM0.333374 14.6667C0.333374 14.313 0.47385 13.9739 0.723899 13.7239C0.973947 13.4738 1.31309 13.3333 1.66671 13.3333H20.3334C20.687 13.3333 21.0261 13.4738 21.2762 13.7239C21.5262 13.9739 21.6667 14.313 21.6667 14.6667C21.6667 15.0203 21.5262 15.3594 21.2762 15.6095C21.0261 15.8595 20.687 16 20.3334 16H1.66671C1.31309 16 0.973947 15.8595 0.723899 15.6095C0.47385 15.3594 0.333374 15.0203 0.333374 14.6667Z" fill="white"/>
</svg>
