<svg width="32" height="33" viewBox="0 0 32 33" fill="none" xmlns="http://www.w3.org/2000/svg">
<rect y="0.5" width="32" height="32" rx="8" fill="white"/>
<path d="M20.25 8.5H11.75C9.67893 8.5 8 10.1789 8 12.25V20.75C8 22.8211 9.67893 24.5 11.75 24.5H20.25C22.3211 24.5 24 22.8211 24 20.75V12.25C24 10.1789 22.3211 8.5 20.25 8.5Z" fill="#FFDD55"/>
<path d="M20.25 8.5H11.75C9.67893 8.5 8 10.1789 8 12.25V20.75C8 22.8211 9.67893 24.5 11.75 24.5H20.25C22.3211 24.5 24 22.8211 24 20.75V12.25C24 10.1789 22.3211 8.5 20.25 8.5Z" fill="#005F70"/>
<path d="M16.0006 10.25C14.3032 10.25 14.0901 10.2574 13.4235 10.2878C12.7581 10.3183 12.3039 10.4236 11.9066 10.5781C11.4954 10.7377 11.1468 10.9513 10.7994 11.2988C10.4517 11.6462 10.2381 11.9949 10.078 12.4059C9.923 12.8034 9.81756 13.2578 9.78762 13.9228C9.75781 14.5895 9.75 14.8026 9.75 16.5001C9.75 18.1975 9.7575 18.4099 9.78775 19.0765C9.81838 19.7419 9.92369 20.1961 10.0781 20.5934C10.2379 21.0046 10.4514 21.3533 10.7989 21.7006C11.1463 22.0483 11.4949 22.2624 11.9058 22.422C12.3034 22.5766 12.7577 22.6819 13.4229 22.7124C14.0896 22.7427 14.3025 22.7501 15.9998 22.7501C17.6974 22.7501 17.9097 22.7427 18.5764 22.7124C19.2417 22.6819 19.6964 22.5766 20.0941 22.422C20.5051 22.2624 20.8532 22.0483 21.2005 21.7006C21.5482 21.3533 21.7617 21.0046 21.9219 20.5936C22.0755 20.1961 22.181 19.7417 22.2122 19.0766C22.2422 18.41 22.25 18.1975 22.25 16.5001C22.25 14.8026 22.2422 14.5896 22.2122 13.9229C22.181 13.2576 22.0755 12.8034 21.9219 12.4061C21.7617 11.9949 21.5482 11.6462 21.2005 11.2988C20.8529 10.9512 20.5052 10.7376 20.0938 10.5782C19.6953 10.4236 19.2409 10.3182 18.5755 10.2878C17.9088 10.2574 17.6966 10.25 15.9986 10.25H16.0006ZM15.4399 11.3763C15.6063 11.3761 15.792 11.3763 16.0006 11.3763C17.6694 11.3763 17.8671 11.3823 18.5261 11.4123C19.1355 11.4401 19.4663 11.5419 19.6866 11.6275C19.9783 11.7408 20.1862 11.8762 20.4048 12.095C20.6236 12.3138 20.7589 12.5221 20.8725 12.8137C20.9581 13.0337 21.06 13.3645 21.0878 13.9739C21.1177 14.6328 21.1242 14.8306 21.1242 16.4986C21.1242 18.1666 21.1177 18.3646 21.0878 19.0234C21.0599 19.6327 20.9581 19.9635 20.8725 20.1836C20.7593 20.4753 20.6236 20.6829 20.4048 20.9016C20.1861 21.1203 19.9784 21.2557 19.6866 21.369C19.4665 21.4549 19.1355 21.5565 18.5261 21.5844C17.8673 21.6143 17.6694 21.6208 16.0006 21.6208C14.3317 21.6208 14.1339 21.6143 13.4751 21.5844C12.8657 21.5563 12.5349 21.4544 12.3144 21.3689C12.0228 21.2556 11.8144 21.1202 11.5957 20.9014C11.3769 20.6827 11.2416 20.4749 11.128 20.1831C11.0424 19.963 10.9405 19.6322 10.9128 19.0229C10.8828 18.364 10.8768 18.1661 10.8768 16.4971C10.8768 14.8281 10.8828 14.6312 10.9128 13.9723C10.9406 13.3629 11.0424 13.0322 11.128 12.8119C11.2413 12.5202 11.3769 12.3119 11.5958 12.0931C11.8145 11.8744 12.0228 11.7389 12.3145 11.6254C12.5348 11.5395 12.8657 11.4379 13.4751 11.4099C14.0516 11.3839 14.2751 11.3761 15.4399 11.3747V11.3763ZM19.3368 12.4141C18.9228 12.4141 18.5868 12.7497 18.5868 13.1638C18.5868 13.5779 18.9228 13.9138 19.3368 13.9138C19.7509 13.9138 20.0868 13.5779 20.0868 13.1638C20.0868 12.7498 19.7509 12.4138 19.3368 12.4138V12.4141ZM16.0006 13.2904C14.2281 13.2904 12.7909 14.7275 12.7909 16.5001C12.7909 18.2726 14.2281 19.7091 16.0006 19.7091C17.7731 19.7091 19.2098 18.2726 19.2098 16.5001C19.2098 14.7276 17.773 13.2904 16.0004 13.2904H16.0006ZM16.0006 14.4167C17.1511 14.4167 18.0839 15.3494 18.0839 16.5001C18.0839 17.6506 17.1511 18.5834 16.0006 18.5834C14.8499 18.5834 13.9173 17.6506 13.9173 16.5001C13.9173 15.3494 14.8499 14.4167 16.0006 14.4167Z" fill="white"/>
</svg>
