<svg width="234" height="257" viewBox="0 0 234 257" fill="none" xmlns="http://www.w3.org/2000/svg">
<mask id="path-1-inside-1_244_4085" fill="white">
<path d="M209.209 42.2652C209.088 41.9063 208.869 41.5884 208.577 41.3474C208.284 41.1065 207.931 40.9521 207.555 40.9018L195.186 39.2549L193.549 26.8961C193.499 26.5208 193.344 26.1672 193.104 25.8749C192.863 25.5827 192.545 25.3635 192.186 25.2421C191.828 25.1207 191.442 25.1019 191.074 25.1877C190.705 25.2736 190.367 25.4608 190.099 25.7281L170.637 45.19C152.011 31.51 128.905 25.3689 105.945 27.9959C82.9841 30.6229 61.8627 41.8242 46.8075 59.3578C31.7524 76.8915 23.8742 99.464 24.7498 122.558C25.6255 145.652 35.1902 167.563 51.5299 183.906C65.9926 198.453 84.9473 207.684 105.317 210.102V225.239C105.317 226.989 106.012 228.667 107.249 229.904C108.487 231.141 110.165 231.836 111.914 231.836H120.804C121.67 231.836 122.528 231.666 123.328 231.334C124.129 231.003 124.856 230.517 125.469 229.904C126.081 229.291 126.567 228.564 126.899 227.764C127.23 226.963 127.401 226.105 127.401 225.239V210.102C143.413 208.157 158.628 202.023 171.512 192.318C184.396 182.614 194.491 169.683 200.781 154.83C207.07 139.977 209.33 123.728 207.333 107.723C205.335 91.7171 199.152 76.5216 189.405 63.6697L208.721 44.3519C208.989 44.0843 209.176 43.7471 209.263 43.3783C209.349 43.0096 209.33 42.624 209.209 42.2652ZM123.335 225.239C123.334 225.91 123.066 226.554 122.591 227.028C122.116 227.503 121.472 227.77 120.801 227.77H111.912C111.241 227.77 110.597 227.503 110.122 227.028C109.647 226.554 109.379 225.91 109.378 225.239V210.498C111.69 210.672 114.016 210.759 116.356 210.759C118.697 210.759 121.023 210.672 123.335 210.498V225.239ZM203.968 119.089C203.966 136.418 198.826 153.358 189.196 167.766C179.567 182.173 165.882 193.402 149.871 200.032C133.86 206.662 116.243 208.395 99.2469 205.013C82.2509 201.631 66.6396 193.284 54.3872 181.029C42.1347 168.774 33.7914 153.161 30.4122 136.165C27.033 119.168 28.7698 101.551 35.4029 85.5417C42.0359 69.5321 53.2674 55.849 67.677 46.2226C82.0867 36.5962 99.0272 31.459 116.356 31.4604C134.814 31.4025 152.81 37.2276 167.732 48.0904L165.223 50.5998C165.001 50.8208 164.833 51.0902 164.732 51.387C164.632 51.6837 164.601 51.9997 164.644 52.3102L166.373 65.2726L161.228 70.4038C148.457 58.5974 131.555 52.2872 114.172 52.8357C96.7884 53.3841 80.3181 60.7471 68.3169 73.3349C56.3157 85.9228 49.7466 102.726 50.0278 120.115C50.3091 137.505 57.4181 154.087 69.8201 166.28C82.2221 178.473 98.9219 185.299 116.314 185.285C133.706 185.271 150.395 178.418 162.777 166.205C175.159 153.992 182.242 137.399 182.495 120.009C182.748 102.618 176.152 85.8262 164.13 73.2577L169.298 68.0923L182.141 69.8027C182.23 69.8154 182.32 69.8219 182.41 69.8222C182.676 69.8223 182.94 69.7696 183.186 69.6673C183.433 69.565 183.656 69.415 183.844 69.2261L186.502 66.57C197.912 81.6918 204.053 100.136 203.983 119.079L203.968 119.089ZM123.335 118.17C123.337 119.699 122.838 121.187 121.914 122.404C120.989 123.622 119.691 124.503 118.218 124.913C116.745 125.322 115.179 125.237 113.759 124.671C112.339 124.105 111.143 123.089 110.356 121.778C109.569 120.468 109.233 118.935 109.4 117.415C109.568 115.896 110.229 114.473 111.282 113.365C112.336 112.257 113.723 111.525 115.233 111.281C116.742 111.037 118.289 111.295 119.638 112.015L114.92 116.724C114.559 117.109 114.362 117.619 114.371 118.147C114.379 118.675 114.593 119.178 114.966 119.551C115.339 119.924 115.843 120.138 116.37 120.146C116.898 120.155 117.408 119.958 117.793 119.597L122.511 114.879C123.053 115.888 123.336 117.016 123.335 118.161V118.17ZM122.602 109.064C120.327 107.503 117.552 106.849 114.82 107.228C112.087 107.608 109.595 108.994 107.832 111.115C106.069 113.236 105.161 115.94 105.287 118.695C105.413 121.451 106.564 124.06 108.514 126.011C110.463 127.962 113.071 129.115 115.827 129.244C118.582 129.372 121.286 128.467 123.409 126.705C125.532 124.944 126.92 122.453 127.302 119.721C127.684 116.989 127.031 114.213 125.473 111.937L143.271 94.1393C149.784 101.144 153.308 110.413 153.093 119.976C152.879 129.538 148.942 138.64 142.12 145.345C135.299 152.05 126.131 155.83 116.566 155.88C107.001 155.93 97.7937 152.247 90.9022 145.614C84.0107 138.981 79.9786 129.921 79.6634 120.361C79.3482 110.801 82.7747 101.496 89.2142 94.423C95.6538 87.3503 104.598 83.0687 114.146 82.4887C123.693 81.9087 133.09 85.076 140.339 91.3171L122.602 109.064ZM143.224 88.4387C135.201 81.4413 124.761 77.8563 114.132 78.4488C103.503 79.0414 93.5258 83.7645 86.3302 91.6103C79.1346 99.4562 75.2902 109.804 75.6172 120.444C75.9442 131.085 80.4168 141.177 88.0806 148.566C95.7445 155.955 105.993 160.057 116.638 159.995C127.284 159.934 137.484 155.715 145.062 148.238C152.64 140.761 156.997 130.618 157.201 119.974C157.405 109.331 153.442 99.0283 146.157 91.2658L161.281 76.141C172.595 87.9535 178.813 103.74 178.594 120.095C178.375 136.45 171.736 152.064 160.11 163.569C148.483 175.074 132.801 181.549 116.444 181.596C100.087 181.644 84.3674 175.26 72.6743 163.823C60.9812 152.386 54.2519 136.811 53.9378 120.457C53.6237 104.103 59.7499 88.2811 70.9952 76.4031C82.2405 64.5251 97.7038 57.5429 114.05 56.9622C130.397 56.3816 146.316 62.2491 158.376 73.2993L143.224 88.4387ZM181.691 65.6562L170.329 64.1413L168.814 52.7793L190.072 31.5215L191.382 41.3441C191.441 41.7861 191.644 42.1964 191.959 42.5117C192.274 42.8271 192.685 43.0298 193.127 43.0887L202.949 44.3984L181.691 65.6562Z"/>
</mask>
<path d="M209.209 42.2652C209.088 41.9063 208.869 41.5884 208.577 41.3474C208.284 41.1065 207.931 40.9521 207.555 40.9018L195.186 39.2549L193.549 26.8961C193.499 26.5208 193.344 26.1672 193.104 25.8749C192.863 25.5827 192.545 25.3635 192.186 25.2421C191.828 25.1207 191.442 25.1019 191.074 25.1877C190.705 25.2736 190.367 25.4608 190.099 25.7281L170.637 45.19C152.011 31.51 128.905 25.3689 105.945 27.9959C82.9841 30.6229 61.8627 41.8242 46.8075 59.3578C31.7524 76.8915 23.8742 99.464 24.7498 122.558C25.6255 145.652 35.1902 167.563 51.5299 183.906C65.9926 198.453 84.9473 207.684 105.317 210.102V225.239C105.317 226.989 106.012 228.667 107.249 229.904C108.487 231.141 110.165 231.836 111.914 231.836H120.804C121.67 231.836 122.528 231.666 123.328 231.334C124.129 231.003 124.856 230.517 125.469 229.904C126.081 229.291 126.567 228.564 126.899 227.764C127.23 226.963 127.401 226.105 127.401 225.239V210.102C143.413 208.157 158.628 202.023 171.512 192.318C184.396 182.614 194.491 169.683 200.781 154.83C207.07 139.977 209.33 123.728 207.333 107.723C205.335 91.7171 199.152 76.5216 189.405 63.6697L208.721 44.3519C208.989 44.0843 209.176 43.7471 209.263 43.3783C209.349 43.0096 209.33 42.624 209.209 42.2652ZM123.335 225.239C123.334 225.91 123.066 226.554 122.591 227.028C122.116 227.503 121.472 227.77 120.801 227.77H111.912C111.241 227.77 110.597 227.503 110.122 227.028C109.647 226.554 109.379 225.91 109.378 225.239V210.498C111.69 210.672 114.016 210.759 116.356 210.759C118.697 210.759 121.023 210.672 123.335 210.498V225.239ZM203.968 119.089C203.966 136.418 198.826 153.358 189.196 167.766C179.567 182.173 165.882 193.402 149.871 200.032C133.86 206.662 116.243 208.395 99.2469 205.013C82.2509 201.631 66.6396 193.284 54.3872 181.029C42.1347 168.774 33.7914 153.161 30.4122 136.165C27.033 119.168 28.7698 101.551 35.4029 85.5417C42.0359 69.5321 53.2674 55.849 67.677 46.2226C82.0867 36.5962 99.0272 31.459 116.356 31.4604C134.814 31.4025 152.81 37.2276 167.732 48.0904L165.223 50.5998C165.001 50.8208 164.833 51.0902 164.732 51.387C164.632 51.6837 164.601 51.9997 164.644 52.3102L166.373 65.2726L161.228 70.4038C148.457 58.5974 131.555 52.2872 114.172 52.8357C96.7884 53.3841 80.3181 60.7471 68.3169 73.3349C56.3157 85.9228 49.7466 102.726 50.0278 120.115C50.3091 137.505 57.4181 154.087 69.8201 166.28C82.2221 178.473 98.9219 185.299 116.314 185.285C133.706 185.271 150.395 178.418 162.777 166.205C175.159 153.992 182.242 137.399 182.495 120.009C182.748 102.618 176.152 85.8262 164.13 73.2577L169.298 68.0923L182.141 69.8027C182.23 69.8154 182.32 69.8219 182.41 69.8222C182.676 69.8223 182.94 69.7696 183.186 69.6673C183.433 69.565 183.656 69.415 183.844 69.2261L186.502 66.57C197.912 81.6918 204.053 100.136 203.983 119.079L203.968 119.089ZM123.335 118.17C123.337 119.699 122.838 121.187 121.914 122.404C120.989 123.622 119.691 124.503 118.218 124.913C116.745 125.322 115.179 125.237 113.759 124.671C112.339 124.105 111.143 123.089 110.356 121.778C109.569 120.468 109.233 118.935 109.4 117.415C109.568 115.896 110.229 114.473 111.282 113.365C112.336 112.257 113.723 111.525 115.233 111.281C116.742 111.037 118.289 111.295 119.638 112.015L114.92 116.724C114.559 117.109 114.362 117.619 114.371 118.147C114.379 118.675 114.593 119.178 114.966 119.551C115.339 119.924 115.843 120.138 116.37 120.146C116.898 120.155 117.408 119.958 117.793 119.597L122.511 114.879C123.053 115.888 123.336 117.016 123.335 118.161V118.17ZM122.602 109.064C120.327 107.503 117.552 106.849 114.82 107.228C112.087 107.608 109.595 108.994 107.832 111.115C106.069 113.236 105.161 115.94 105.287 118.695C105.413 121.451 106.564 124.06 108.514 126.011C110.463 127.962 113.071 129.115 115.827 129.244C118.582 129.372 121.286 128.467 123.409 126.705C125.532 124.944 126.92 122.453 127.302 119.721C127.684 116.989 127.031 114.213 125.473 111.937L143.271 94.1393C149.784 101.144 153.308 110.413 153.093 119.976C152.879 129.538 148.942 138.64 142.12 145.345C135.299 152.05 126.131 155.83 116.566 155.88C107.001 155.93 97.7937 152.247 90.9022 145.614C84.0107 138.981 79.9786 129.921 79.6634 120.361C79.3482 110.801 82.7747 101.496 89.2142 94.423C95.6538 87.3503 104.598 83.0687 114.146 82.4887C123.693 81.9087 133.09 85.076 140.339 91.3171L122.602 109.064ZM143.224 88.4387C135.201 81.4413 124.761 77.8563 114.132 78.4488C103.503 79.0414 93.5258 83.7645 86.3302 91.6103C79.1346 99.4562 75.2902 109.804 75.6172 120.444C75.9442 131.085 80.4168 141.177 88.0806 148.566C95.7445 155.955 105.993 160.057 116.638 159.995C127.284 159.934 137.484 155.715 145.062 148.238C152.64 140.761 156.997 130.618 157.201 119.974C157.405 109.331 153.442 99.0283 146.157 91.2658L161.281 76.141C172.595 87.9535 178.813 103.74 178.594 120.095C178.375 136.45 171.736 152.064 160.11 163.569C148.483 175.074 132.801 181.549 116.444 181.596C100.087 181.644 84.3674 175.26 72.6743 163.823C60.9812 152.386 54.2519 136.811 53.9378 120.457C53.6237 104.103 59.7499 88.2811 70.9952 76.4031C82.2405 64.5251 97.7038 57.5429 114.05 56.9622C130.397 56.3816 146.316 62.2491 158.376 73.2993L143.224 88.4387ZM181.691 65.6562L170.329 64.1413L168.814 52.7793L190.072 31.5215L191.382 41.3441C191.441 41.7861 191.644 42.1964 191.959 42.5117C192.274 42.8271 192.685 43.0298 193.127 43.0887L202.949 44.3984L181.691 65.6562Z" fill="white" stroke="white" stroke-width="4" mask="url(#path-1-inside-1_244_4085)"/>
</svg>
