<svg width="260" height="214" viewBox="0 0 260 214" fill="none" xmlns="http://www.w3.org/2000/svg">
<g clip-path="url(#clip0_244_4074)">
<path d="M208.468 112.614C209.528 111.004 210.093 109.119 210.093 107.191C210.093 105.264 209.528 103.378 208.468 101.768C199.843 89.0135 188.202 78.5859 174.578 71.4118C160.955 64.2377 145.77 60.5392 130.373 60.6448C114.976 60.5392 99.7916 64.2377 86.1679 71.4118C72.5441 78.5859 60.9029 89.0135 52.2783 101.768C51.218 103.378 50.6528 105.264 50.6528 107.191C50.6528 109.119 51.218 111.004 52.2783 112.614C60.9029 125.369 72.5441 135.796 86.1679 142.97C99.7916 150.145 114.976 153.843 130.373 153.737C145.77 153.843 160.955 150.145 174.578 142.97C188.202 135.796 199.843 125.369 208.468 112.614ZM130.373 147.088C116.07 147.192 101.962 143.762 89.3024 137.104C76.6428 130.446 65.8232 120.764 57.804 108.92C57.4671 108.406 57.2875 107.805 57.2875 107.191C57.2875 106.577 57.4671 105.976 57.804 105.462C65.8232 93.6178 76.6428 83.9366 89.3024 77.2783C101.962 70.6199 116.07 67.1904 130.373 67.2943C144.676 67.1904 158.784 70.6199 171.444 77.2783C184.103 83.9366 194.923 93.6178 202.942 105.462C203.279 105.976 203.459 106.577 203.459 107.191C203.459 107.805 203.279 108.406 202.942 108.92C194.923 120.764 184.103 130.446 171.444 137.104C158.784 143.762 144.676 147.192 130.373 147.088Z" fill="white"/>
<path d="M130.373 70.6182C123.139 70.6182 116.069 72.7631 110.054 76.7817C104.04 80.8003 99.3525 86.5121 96.5844 93.1947C93.8164 99.8774 93.0921 107.231 94.5033 114.325C95.9144 121.419 99.3976 127.936 104.512 133.051C109.627 138.165 116.144 141.649 123.238 143.06C130.332 144.471 137.686 143.747 144.368 140.979C151.051 138.21 156.763 133.523 160.781 127.509C164.8 121.494 166.945 114.424 166.945 107.19C166.933 97.4943 163.077 88.1987 156.22 81.3425C149.364 74.4864 140.069 70.6296 130.373 70.6182ZM130.373 137.113C124.455 137.113 118.669 135.358 113.749 132.07C108.828 128.782 104.993 124.109 102.728 118.641C100.463 113.174 99.8704 107.157 101.025 101.353C102.18 95.5482 105.029 90.2165 109.214 86.0318C113.399 81.847 118.731 78.9972 124.535 77.8426C130.339 76.688 136.356 77.2806 141.824 79.5454C147.291 81.8101 151.965 85.6454 155.252 90.5662C158.54 95.4869 160.295 101.272 160.295 107.19C160.287 115.124 157.131 122.729 151.521 128.339C145.912 133.949 138.306 137.104 130.373 137.113Z" fill="white"/>
<path d="M80.5014 59.4002C81.1589 59.4001 81.8015 59.205 82.3481 58.8397C82.8948 58.4743 83.3208 57.9551 83.5724 57.3477C83.824 56.7403 83.8898 56.0719 83.7616 55.4271C83.6333 54.7822 83.3168 54.1899 82.852 53.7249L72.8778 43.7507C72.2507 43.145 71.4109 42.8099 70.5391 42.8175C69.6674 42.8251 68.8335 43.1747 68.2171 43.7912C67.6006 44.4076 67.251 45.2415 67.2434 46.1132C67.2358 46.985 67.571 47.8248 68.1766 48.4519L78.1508 58.4261C78.7742 59.0496 79.6197 59.4 80.5014 59.4002Z" fill="white"/>
<path d="M182.595 58.4261L192.569 48.4519C193.174 47.8248 193.51 46.985 193.502 46.1132C193.494 45.2415 193.145 44.4076 192.528 43.7912C191.912 43.1747 191.078 42.8251 190.206 42.8175C189.335 42.8099 188.495 43.145 187.868 43.7507L177.893 53.7249C177.576 54.0316 177.323 54.3985 177.148 54.8041C176.974 55.2097 176.882 55.646 176.879 56.0874C176.875 56.5289 176.959 56.9667 177.126 57.3753C177.293 57.7839 177.54 58.1551 177.852 58.4673C178.164 58.7794 178.536 59.0263 178.944 59.1935C179.353 59.3607 179.791 59.4448 180.232 59.441C180.674 59.4371 181.11 59.3454 181.515 59.1712C181.921 58.9969 182.288 58.7436 182.595 58.4261Z" fill="white"/>
<path d="M133.697 44.8409V30.7373C133.697 29.8556 133.347 29.0099 132.724 28.3864C132.1 27.7629 131.254 27.4126 130.373 27.4126C129.491 27.4126 128.645 27.7629 128.022 28.3864C127.398 29.0099 127.048 29.8556 127.048 30.7373V44.8409C127.048 45.7227 127.398 46.5683 128.022 47.1918C128.645 47.8153 129.491 48.1656 130.373 48.1656C131.254 48.1656 132.1 47.8153 132.724 47.1918C133.347 46.5683 133.697 45.7227 133.697 44.8409Z" fill="white"/>
<path d="M78.1512 155.954L68.177 165.929C67.8594 166.235 67.6062 166.602 67.4319 167.008C67.2577 167.413 67.1659 167.85 67.1621 168.291C67.1583 168.733 67.2424 169.17 67.4096 169.579C67.5767 169.988 67.8236 170.359 68.1358 170.671C68.448 170.983 68.8192 171.23 69.2278 171.397C69.6364 171.564 70.0742 171.648 70.5156 171.645C70.9571 171.641 71.3933 171.549 71.799 171.375C72.2046 171.201 72.5715 170.947 72.8782 170.63L82.8524 160.655C83.458 160.028 83.7931 159.189 83.7856 158.317C83.778 157.445 83.4283 156.611 82.8119 155.995C82.1955 155.378 81.3616 155.029 80.4898 155.021C79.6181 155.014 78.7783 155.349 78.1512 155.954Z" fill="white"/>
<path d="M177.893 155.954C177.27 156.577 176.92 157.423 176.92 158.304C176.92 159.186 177.27 160.032 177.893 160.655L187.867 170.629C188.495 171.235 189.334 171.57 190.206 171.562C191.078 171.555 191.912 171.205 192.528 170.589C193.145 169.972 193.494 169.138 193.502 168.267C193.509 167.395 193.174 166.555 192.569 165.928L182.594 155.954C181.971 155.331 181.125 154.98 180.244 154.98C179.362 154.98 178.517 155.331 177.893 155.954Z" fill="white"/>
<path d="M127.048 169.539V183.659C127.048 184.541 127.398 185.387 128.022 186.01C128.645 186.634 129.491 186.984 130.373 186.984C131.254 186.984 132.1 186.634 132.724 186.01C133.347 185.387 133.697 184.541 133.697 183.659V169.539C133.697 168.657 133.347 167.812 132.724 167.188C132.1 166.565 131.254 166.214 130.373 166.214C129.491 166.214 128.645 166.565 128.022 167.188C127.398 167.812 127.048 168.657 127.048 169.539Z" fill="white"/>
</g>
<defs>
<clipPath id="clip0_244_4074">
<rect width="159.441" height="159.571" fill="white" transform="translate(50.6528 27.4126)"/>
</clipPath>
</defs>
</svg>
