<svg width="32" height="33" viewBox="0 0 32 33" fill="none" xmlns="http://www.w3.org/2000/svg">
<rect y="0.5" width="32" height="32" rx="8" fill="white"/>
<path d="M23.645 12.6303C23.5533 12.2912 23.3743 11.9821 23.1259 11.7337C22.8775 11.4853 22.5684 11.3063 22.2293 11.2145C20.9879 10.876 15.9918 10.876 15.9918 10.876C15.9918 10.876 10.9954 10.8862 9.75401 11.2248C9.41492 11.3166 9.10579 11.4956 8.8574 11.744C8.60901 11.9924 8.43003 12.3015 8.33829 12.6406C7.9628 14.8463 7.81714 18.2073 8.3486 20.3248C8.44035 20.6638 8.61934 20.973 8.86772 21.2214C9.11611 21.4698 9.42524 21.6488 9.76432 21.7405C11.0057 22.0791 16.002 22.0791 16.002 22.0791C16.002 22.0791 20.9982 22.0791 22.2395 21.7405C22.5786 21.6488 22.8877 21.4698 23.1361 21.2214C23.3845 20.973 23.5635 20.6639 23.6553 20.3248C24.0513 18.1159 24.1734 14.757 23.645 12.6303Z" fill="#005F70"/>
<path d="M14.4016 18.8782L18.5463 16.4776L14.4016 14.0769V18.8782Z" fill="white"/>
</svg>
